<svg width="638" height="138" viewBox="0 0 638 138" fill="none" xmlns="http://www.w3.org/2000/svg">
<path d="M123.437 132.985H106.47L87.8965 93.959H87.8438L61.7188 37.6787L24.7637 117.291H59.6602V132.985H0L61.7178 0L123.437 132.985Z" fill="#F96857"/>
<path d="M306.092 128.284V125.035C305.983 125.373 305.665 125.84 305.137 126.436C304.622 127.032 303.912 127.573 303.004 128.061C302.111 128.535 301.055 128.772 299.836 128.772C298.292 128.772 296.891 128.406 295.632 127.675C294.386 126.944 293.391 125.922 292.646 124.608C291.915 123.281 291.549 121.731 291.549 119.957C291.549 118.183 291.915 116.64 292.646 115.326C293.391 113.999 294.386 112.97 295.632 112.239C296.891 111.494 298.292 111.122 299.836 111.122C301.041 111.122 302.084 111.339 302.964 111.772C303.857 112.205 304.568 112.706 305.096 113.275C305.638 113.844 305.956 114.331 306.051 114.737V111.61H309.544V128.284H306.092ZM295.043 119.957C295.043 121.162 295.307 122.205 295.835 123.085C296.363 123.965 297.047 124.649 297.886 125.136C298.739 125.61 299.646 125.847 300.608 125.847C301.637 125.847 302.558 125.603 303.37 125.116C304.182 124.628 304.826 123.945 305.299 123.065C305.773 122.171 306.01 121.135 306.01 119.957C306.01 118.779 305.773 117.75 305.299 116.87C304.826 115.976 304.182 115.286 303.37 114.798C302.558 114.297 301.637 114.047 300.608 114.047C299.646 114.047 298.739 114.29 297.886 114.778C297.047 115.265 296.363 115.949 295.835 116.829C295.307 117.709 295.043 118.752 295.043 119.957Z" fill="white"/>
<path d="M283.75 128.284V111.609H287.284V128.284H283.75ZM285.558 105.902C284.922 105.902 284.373 105.679 283.913 105.232C283.466 104.771 283.243 104.223 283.243 103.587C283.243 102.95 283.466 102.402 283.913 101.942C284.373 101.481 284.922 101.251 285.558 101.251C285.978 101.251 286.364 101.359 286.716 101.576C287.081 101.793 287.372 102.077 287.589 102.429C287.806 102.767 287.914 103.153 287.914 103.587C287.914 104.223 287.684 104.771 287.224 105.232C286.763 105.679 286.208 105.902 285.558 105.902Z" fill="white"/>
<path d="M269.588 137.201C268.274 137.201 267.083 137.065 266.013 136.794C264.957 136.524 264.03 136.138 263.231 135.637C262.445 135.149 261.816 134.574 261.342 133.91L263.657 131.696C263.914 132.049 264.26 132.421 264.693 132.814C265.14 133.22 265.742 133.565 266.501 133.849C267.259 134.134 268.247 134.276 269.466 134.276C270.657 134.276 271.666 134.019 272.492 133.504C273.318 133.003 273.948 132.319 274.381 131.453C274.814 130.586 275.031 129.611 275.031 128.528V127.98H278.484V128.751C278.484 130.593 278.084 132.137 277.285 133.382C276.5 134.641 275.437 135.589 274.097 136.226C272.756 136.876 271.253 137.201 269.588 137.201ZM275.031 128.284V125.035C274.923 125.373 274.604 125.84 274.076 126.436C273.562 127.032 272.851 127.573 271.944 128.061C271.05 128.535 269.994 128.772 268.775 128.772C267.232 128.772 265.83 128.406 264.571 127.675C263.325 126.944 262.33 125.922 261.586 124.608C260.854 123.281 260.489 121.731 260.489 119.957C260.489 118.183 260.854 116.64 261.586 115.326C262.33 113.999 263.325 112.97 264.571 112.239C265.83 111.494 267.232 111.122 268.775 111.122C269.98 111.122 271.023 111.339 271.903 111.772C272.797 112.205 273.508 112.706 274.036 113.275C274.577 113.844 274.896 114.331 274.99 114.737V111.61H278.484V128.284H275.031ZM263.982 119.957C263.982 121.162 264.246 122.205 264.774 123.085C265.302 123.965 265.986 124.649 266.826 125.136C267.679 125.61 268.586 125.847 269.547 125.847C270.576 125.847 271.497 125.603 272.309 125.116C273.122 124.628 273.765 123.945 274.239 123.065C274.713 122.171 274.95 121.135 274.95 119.957C274.95 118.779 274.713 117.75 274.239 116.87C273.765 115.976 273.122 115.286 272.309 114.798C271.497 114.297 270.576 114.047 269.547 114.047C268.586 114.047 267.679 114.29 266.826 114.778C265.986 115.265 265.302 115.949 264.774 116.829C264.246 117.709 263.982 118.752 263.982 119.957Z" fill="white"/>
<path d="M244.482 120.668C244.495 121.67 244.712 122.584 245.132 123.41C245.551 124.236 246.174 124.893 247 125.38C247.84 125.867 248.869 126.111 250.087 126.111C251.117 126.111 251.99 125.962 252.707 125.664C253.439 125.353 254.034 124.987 254.495 124.568C254.955 124.134 255.287 123.748 255.49 123.41L257.216 125.542C256.77 126.192 256.221 126.761 255.571 127.249C254.935 127.736 254.156 128.108 253.236 128.366C252.315 128.636 251.191 128.772 249.864 128.772C248.077 128.772 246.526 128.393 245.213 127.634C243.913 126.863 242.911 125.8 242.207 124.446C241.503 123.078 241.151 121.514 241.151 119.754C241.151 118.129 241.483 116.667 242.146 115.367C242.81 114.054 243.771 113.018 245.03 112.259C246.303 111.501 247.833 111.122 249.62 111.122C251.259 111.122 252.68 111.467 253.885 112.158C255.104 112.835 256.045 113.796 256.709 115.042C257.386 116.288 257.724 117.777 257.724 119.51C257.724 119.619 257.717 119.815 257.704 120.099C257.69 120.37 257.677 120.56 257.663 120.668H244.482ZM254.353 118.007C254.339 117.452 254.177 116.843 253.865 116.179C253.567 115.516 253.08 114.947 252.403 114.473C251.726 113.999 250.812 113.762 249.661 113.762C248.469 113.762 247.508 113.993 246.777 114.453C246.059 114.913 245.531 115.475 245.193 116.139C244.854 116.789 244.658 117.412 244.604 118.007H254.353Z" fill="white"/>
<path d="M227.398 111.609H230.668V104.765H234.182V111.609H238.468V114.635H234.182V122.882C234.182 123.856 234.351 124.574 234.69 125.034C235.042 125.495 235.509 125.725 236.091 125.725C236.606 125.725 237.005 125.63 237.29 125.441C237.574 125.251 237.743 125.122 237.797 125.055L239.199 127.654C239.118 127.722 238.901 127.851 238.549 128.04C238.197 128.23 237.743 128.399 237.188 128.548C236.633 128.697 235.983 128.772 235.238 128.772C233.938 128.772 232.848 128.379 231.968 127.594C231.102 126.795 230.668 125.535 230.668 123.816V114.635H227.398V111.609Z" fill="white"/>
<path d="M220.645 128.284V125.035C220.537 125.373 220.219 125.84 219.691 126.436C219.176 127.032 218.465 127.573 217.558 128.061C216.664 128.535 215.608 128.772 214.39 128.772C212.846 128.772 211.445 128.406 210.185 127.675C208.94 126.944 207.945 125.922 207.2 124.608C206.469 123.281 206.103 121.731 206.103 119.957C206.103 118.183 206.469 116.64 207.2 115.326C207.945 113.999 208.94 112.97 210.185 112.239C211.445 111.494 212.846 111.122 214.39 111.122C215.595 111.122 216.637 111.339 217.517 111.772C218.411 112.205 219.122 112.706 219.65 113.275C220.192 113.844 220.51 114.331 220.605 114.737V111.61H224.098V128.284H220.645ZM209.596 119.957C209.596 121.162 209.86 122.205 210.389 123.085C210.917 123.965 211.6 124.649 212.44 125.136C213.293 125.61 214.2 125.847 215.161 125.847C216.191 125.847 217.111 125.603 217.924 125.116C218.736 124.628 219.379 123.945 219.853 123.065C220.327 122.171 220.564 121.135 220.564 119.957C220.564 118.779 220.327 117.75 219.853 116.87C219.379 115.976 218.736 115.286 217.924 114.798C217.111 114.297 216.191 114.047 215.161 114.047C214.2 114.047 213.293 114.29 212.44 114.778C211.6 115.265 210.917 115.949 210.389 116.829C209.86 117.709 209.596 118.752 209.596 119.957Z" fill="white"/>
<path d="M196.869 128.284H193.355V111.61H196.869V114.494H196.768C196.835 114.142 197.086 113.701 197.519 113.173C197.952 112.645 198.548 112.171 199.306 111.752C200.065 111.332 200.972 111.122 202.028 111.122C202.8 111.122 203.477 111.23 204.059 111.447C204.655 111.65 205.075 111.853 205.318 112.056L203.876 114.981C203.687 114.791 203.355 114.602 202.881 114.412C202.407 114.209 201.818 114.108 201.114 114.108C200.22 114.108 199.455 114.385 198.819 114.94C198.183 115.496 197.695 116.166 197.357 116.951C197.032 117.723 196.869 118.441 196.869 119.104V128.284Z" fill="white"/>
<path d="M178.526 111.609H181.796V104.765H185.31V111.609H189.596V114.635H185.31V122.882C185.31 123.856 185.479 124.574 185.818 125.034C186.17 125.495 186.637 125.725 187.219 125.725C187.734 125.725 188.133 125.63 188.418 125.441C188.702 125.251 188.871 125.122 188.925 125.055L190.327 127.654C190.245 127.722 190.029 127.851 189.677 128.04C189.325 128.23 188.871 128.399 188.316 128.548C187.761 128.697 187.111 128.772 186.366 128.772C185.066 128.772 183.976 128.379 183.096 127.594C182.23 126.795 181.796 125.535 181.796 123.816V114.635H178.526V111.609Z" fill="white"/>
<path d="M170.138 111.122C171.005 111.122 171.811 111.21 172.555 111.386C173.313 111.562 173.963 111.772 174.505 112.016C175.06 112.259 175.453 112.476 175.683 112.666L174.282 114.9C174.011 114.656 173.523 114.385 172.819 114.087C172.115 113.776 171.33 113.62 170.463 113.62C169.515 113.62 168.71 113.81 168.046 114.189C167.383 114.555 167.051 115.089 167.051 115.793C167.051 116.498 167.39 117.059 168.067 117.479C168.757 117.885 169.678 118.224 170.829 118.495C171.75 118.711 172.609 119.002 173.408 119.368C174.221 119.734 174.877 120.241 175.378 120.891C175.879 121.528 176.13 122.381 176.13 123.45C176.13 124.425 175.927 125.258 175.521 125.949C175.114 126.626 174.566 127.174 173.875 127.594C173.185 128 172.413 128.298 171.56 128.487C170.707 128.677 169.84 128.772 168.96 128.772C167.931 128.772 167.004 128.663 166.178 128.447C165.352 128.244 164.655 128 164.086 127.716C163.531 127.418 163.124 127.16 162.867 126.944L164.269 124.425C164.621 124.764 165.196 125.123 165.995 125.502C166.807 125.881 167.728 126.071 168.757 126.071C169.895 126.071 170.815 125.834 171.519 125.36C172.224 124.872 172.576 124.243 172.576 123.471C172.576 122.889 172.406 122.421 172.068 122.069C171.729 121.717 171.276 121.433 170.707 121.216C170.138 121 169.515 120.81 168.838 120.648C168.189 120.499 167.552 120.302 166.929 120.059C166.32 119.815 165.758 119.503 165.244 119.124C164.743 118.732 164.343 118.258 164.045 117.703C163.747 117.134 163.598 116.47 163.598 115.712C163.598 114.751 163.903 113.932 164.512 113.255C165.122 112.564 165.921 112.036 166.909 111.67C167.897 111.305 168.974 111.122 170.138 111.122Z" fill="white"/>
<path d="M142.663 101.475H158.505V104.623H146.095V113.316H158.261V116.382H146.095V125.136H158.505V128.284H142.663V101.475Z" fill="white"/>
<circle cx="328.757" cy="119.225" r="6.21265" fill="#F96857"/>
<path d="M484.912 137.658C483.599 137.658 482.407 137.522 481.337 137.251C480.281 136.981 479.354 136.595 478.555 136.094C477.77 135.606 477.14 135.031 476.666 134.367L478.981 132.154C479.239 132.506 479.584 132.878 480.017 133.271C480.464 133.677 481.067 134.022 481.825 134.306C482.583 134.591 483.572 134.733 484.79 134.733C485.982 134.733 486.99 134.476 487.816 133.961C488.642 133.46 489.272 132.776 489.705 131.91C490.139 131.043 490.355 130.068 490.355 128.985V128.437H493.808V129.209C493.808 131.05 493.409 132.594 492.61 133.839C491.824 135.099 490.761 136.046 489.421 136.683C488.08 137.333 486.577 137.658 484.912 137.658ZM490.355 128.741V125.492C490.247 125.83 489.929 126.297 489.401 126.893C488.886 127.489 488.175 128.031 487.268 128.518C486.374 128.992 485.318 129.229 484.1 129.229C482.556 129.229 481.155 128.863 479.895 128.132C478.65 127.401 477.654 126.379 476.91 125.065C476.179 123.738 475.813 122.188 475.813 120.414C475.813 118.64 476.179 117.097 476.91 115.783C477.654 114.456 478.65 113.427 479.895 112.696C481.155 111.951 482.556 111.579 484.1 111.579C485.305 111.579 486.347 111.796 487.227 112.229C488.121 112.662 488.832 113.163 489.36 113.732C489.902 114.301 490.22 114.788 490.315 115.194V112.067H493.808V128.741H490.355ZM479.306 120.414C479.306 121.619 479.57 122.662 480.098 123.542C480.627 124.422 481.31 125.106 482.15 125.593C483.003 126.067 483.91 126.304 484.871 126.304C485.9 126.304 486.821 126.06 487.634 125.573C488.446 125.086 489.089 124.402 489.563 123.522C490.037 122.628 490.274 121.592 490.274 120.414C490.274 119.236 490.037 118.207 489.563 117.327C489.089 116.433 488.446 115.743 487.634 115.255C486.821 114.754 485.9 114.504 484.871 114.504C483.91 114.504 483.003 114.748 482.15 115.235C481.31 115.722 480.627 116.406 480.098 117.286C479.57 118.166 479.306 119.209 479.306 120.414Z" fill="white"/>
<path d="M465.566 111.579C466.662 111.579 467.725 111.809 468.754 112.27C469.797 112.73 470.65 113.461 471.313 114.463C471.99 115.452 472.329 116.745 472.329 118.342V128.741H468.754V119.033C468.754 117.381 468.368 116.183 467.597 115.438C466.825 114.68 465.83 114.301 464.611 114.301C463.812 114.301 463.04 114.531 462.296 114.991C461.564 115.438 460.962 116.061 460.488 116.86C460.014 117.645 459.777 118.539 459.777 119.541V128.741H456.243V112.067H459.777V115.032C459.899 114.571 460.231 114.071 460.772 113.529C461.314 112.987 462.005 112.527 462.844 112.148C463.684 111.769 464.591 111.579 465.566 111.579Z" fill="white"/>
<path d="M447.307 128.741V112.066H450.841V128.741H447.307ZM449.114 106.359C448.478 106.359 447.929 106.136 447.469 105.689C447.022 105.228 446.799 104.68 446.799 104.044C446.799 103.407 447.022 102.859 447.469 102.399C447.929 101.938 448.478 101.708 449.114 101.708C449.534 101.708 449.92 101.816 450.272 102.033C450.637 102.25 450.929 102.534 451.145 102.886C451.362 103.225 451.47 103.61 451.47 104.044C451.47 104.68 451.24 105.228 450.78 105.689C450.319 106.136 449.764 106.359 449.114 106.359Z" fill="white"/>
<path d="M432.971 129.228C431.441 129.228 430.067 128.863 428.848 128.132C427.643 127.401 426.689 126.378 425.985 125.065C425.294 123.738 424.949 122.188 424.949 120.414C424.949 118.64 425.294 117.096 425.985 115.783C426.689 114.456 427.643 113.427 428.848 112.696C430.067 111.951 431.441 111.579 432.971 111.579C434.203 111.579 435.287 111.795 436.221 112.229C437.155 112.648 437.9 113.143 438.455 113.711C439.01 114.28 439.328 114.774 439.41 115.194V100.794H442.964V128.741H439.471V125.491C439.322 125.952 438.949 126.473 438.354 127.055C437.771 127.637 437.02 128.145 436.099 128.579C435.178 129.012 434.136 129.228 432.971 129.228ZM433.784 126.304C434.813 126.304 435.754 126.06 436.607 125.573C437.46 125.085 438.137 124.401 438.638 123.521C439.152 122.628 439.41 121.592 439.41 120.414C439.41 119.236 439.152 118.207 438.638 117.327C438.137 116.433 437.46 115.742 436.607 115.255C435.754 114.754 434.813 114.503 433.784 114.503C432.836 114.503 431.956 114.747 431.143 115.235C430.331 115.722 429.674 116.406 429.173 117.286C428.686 118.166 428.442 119.209 428.442 120.414C428.442 121.619 428.686 122.661 429.173 123.542C429.674 124.422 430.331 125.105 431.143 125.593C431.956 126.067 432.836 126.304 433.784 126.304Z" fill="white"/>
<path d="M414.234 111.579C415.331 111.579 416.394 111.809 417.423 112.27C418.465 112.73 419.318 113.461 419.982 114.463C420.659 115.452 420.997 116.745 420.997 118.342V128.741H417.423V119.033C417.423 117.381 417.037 116.183 416.265 115.438C415.493 114.68 414.498 114.301 413.279 114.301C412.481 114.301 411.709 114.531 410.964 114.991C410.233 115.438 409.63 116.061 409.156 116.86C408.683 117.645 408.446 118.539 408.446 119.541V128.741H404.912V112.067H408.446V115.032C408.567 114.571 408.899 114.071 409.441 113.529C409.982 112.987 410.673 112.527 411.512 112.148C412.352 111.769 413.259 111.579 414.234 111.579Z" fill="white"/>
<path d="M396.737 128.741V125.492C396.629 125.83 396.311 126.297 395.782 126.893C395.268 127.489 394.557 128.031 393.65 128.518C392.756 128.992 391.7 129.229 390.481 129.229C388.938 129.229 387.536 128.863 386.277 128.132C385.032 127.401 384.036 126.379 383.292 125.065C382.56 123.738 382.195 122.188 382.195 120.414C382.195 118.64 382.56 117.097 383.292 115.783C384.036 114.456 385.032 113.427 386.277 112.696C387.536 111.951 388.938 111.579 390.481 111.579C391.687 111.579 392.729 111.796 393.609 112.229C394.503 112.662 395.214 113.163 395.742 113.732C396.283 114.301 396.602 114.788 396.696 115.194V112.067H400.19V128.741H396.737ZM385.688 120.414C385.688 121.619 385.952 122.662 386.48 123.542C387.008 124.422 387.692 125.106 388.532 125.593C389.385 126.067 390.292 126.304 391.253 126.304C392.282 126.304 393.203 126.06 394.015 125.573C394.828 125.086 395.471 124.402 395.945 123.522C396.419 122.628 396.656 121.592 396.656 120.414C396.656 119.236 396.419 118.207 395.945 117.327C395.471 116.433 394.828 115.743 394.015 115.255C393.203 114.754 392.282 114.504 391.253 114.504C390.292 114.504 389.385 114.748 388.532 115.235C387.692 115.722 387.008 116.406 386.48 117.286C385.952 118.166 385.688 119.209 385.688 120.414Z" fill="white"/>
<path d="M372.96 128.741H369.447V112.067H372.96V114.951H372.859C372.927 114.599 373.177 114.159 373.61 113.63C374.044 113.102 374.639 112.628 375.398 112.209C376.156 111.789 377.063 111.579 378.119 111.579C378.891 111.579 379.568 111.687 380.15 111.904C380.746 112.107 381.166 112.31 381.41 112.513L379.968 115.438C379.778 115.249 379.446 115.059 378.972 114.869C378.498 114.666 377.909 114.565 377.205 114.565C376.312 114.565 375.547 114.842 374.91 115.397C374.274 115.953 373.786 116.623 373.448 117.408C373.123 118.18 372.96 118.898 372.96 119.561V128.741Z" fill="white"/>
<path d="M347.97 101.932H355.424C356.886 101.932 358.26 102.128 359.547 102.521C360.833 102.913 361.876 103.577 362.674 104.511C363.473 105.445 363.873 106.745 363.873 108.411C363.873 109.534 363.649 110.557 363.203 111.478C362.769 112.385 362.228 113.123 361.578 113.691C360.928 114.26 360.285 114.599 359.648 114.707C360.163 114.747 360.731 114.91 361.354 115.194C361.991 115.479 362.593 115.885 363.162 116.413C363.744 116.941 364.218 117.604 364.584 118.403C364.963 119.189 365.152 120.123 365.152 121.206C365.152 122.669 364.854 123.968 364.259 125.106C363.663 126.243 362.756 127.137 361.537 127.787C360.332 128.423 358.802 128.741 356.947 128.741H347.97V101.932ZM351.422 125.837H356.602C357.888 125.837 358.883 125.614 359.587 125.167C360.305 124.706 360.806 124.111 361.09 123.379C361.388 122.648 361.537 121.87 361.537 121.044C361.537 119.676 361.09 118.573 360.197 117.733C359.303 116.894 358.01 116.474 356.317 116.474H351.422V125.837ZM351.422 113.63H355.911C356.94 113.63 357.786 113.407 358.45 112.96C359.113 112.5 359.608 111.918 359.933 111.213C360.258 110.496 360.42 109.758 360.42 109C360.42 107.443 359.96 106.359 359.039 105.75C358.132 105.141 356.913 104.836 355.383 104.836H351.422V113.63Z" fill="white"/>
<circle cx="513.02" cy="119.225" r="6.21265" fill="#F96857"/>
<path d="M628.828 132.986C627.108 132.986 625.578 132.6 624.238 131.828C622.911 131.056 621.868 130.014 621.11 128.7C620.352 127.373 619.973 125.877 619.973 124.212C619.973 122.546 620.352 121.043 621.11 119.703C621.868 118.362 622.911 117.299 624.238 116.514C625.578 115.729 627.108 115.336 628.828 115.336C630.534 115.336 632.044 115.729 633.357 116.514C634.684 117.299 635.72 118.362 636.465 119.703C637.209 121.043 637.582 122.546 637.582 124.212C637.582 125.877 637.209 127.373 636.465 128.7C635.72 130.014 634.684 131.056 633.357 131.828C632.044 132.6 630.534 132.986 628.828 132.986ZM628.828 129.959C629.911 129.959 630.852 129.709 631.651 129.208C632.464 128.707 633.093 128.023 633.54 127.157C633.987 126.276 634.21 125.288 634.21 124.191C634.21 123.095 633.987 122.106 633.54 121.226C633.093 120.346 632.464 119.649 631.651 119.134C630.852 118.619 629.911 118.362 628.828 118.362C627.731 118.362 626.777 118.619 625.964 119.134C625.152 119.649 624.515 120.346 624.055 121.226C623.608 122.106 623.385 123.095 623.385 124.191C623.385 125.288 623.608 126.276 624.055 127.157C624.515 128.023 625.152 128.707 625.964 129.208C626.777 129.709 627.731 129.959 628.828 129.959Z" fill="white"/>
<path d="M609.725 115.336C610.822 115.336 611.885 115.566 612.914 116.026C613.957 116.486 614.81 117.218 615.473 118.22C616.15 119.208 616.489 120.501 616.489 122.099V132.498H612.914V122.789C612.914 121.138 612.528 119.939 611.756 119.195C610.985 118.436 609.989 118.057 608.771 118.057C607.972 118.057 607.2 118.287 606.455 118.748C605.724 119.195 605.122 119.817 604.648 120.616C604.174 121.402 603.937 122.295 603.937 123.297V132.498H600.403V115.823H603.937V118.788C604.059 118.328 604.39 117.827 604.932 117.285C605.474 116.744 606.164 116.283 607.004 115.904C607.843 115.525 608.75 115.336 609.725 115.336ZM601.581 112.106C601.716 111.483 601.946 110.847 602.271 110.197C602.61 109.547 603.043 108.999 603.571 108.552C604.113 108.092 604.742 107.861 605.46 107.861C606.286 107.861 606.983 107.99 607.552 108.247C608.121 108.504 608.656 108.762 609.157 109.019C609.658 109.276 610.213 109.405 610.822 109.405C611.296 109.405 611.675 109.229 611.959 108.877C612.244 108.525 612.427 108.186 612.508 107.861H615.067C614.932 108.457 614.688 109.087 614.336 109.75C613.997 110.4 613.557 110.955 613.016 111.416C612.488 111.876 611.865 112.106 611.147 112.106C610.321 112.106 609.617 111.978 609.035 111.72C608.453 111.463 607.918 111.206 607.43 110.949C606.943 110.691 606.428 110.563 605.887 110.563C605.44 110.563 605.061 110.739 604.749 111.091C604.451 111.429 604.248 111.768 604.14 112.106H601.581Z" fill="white"/>
<path d="M583.259 124.882C583.272 125.884 583.489 126.798 583.909 127.624C584.328 128.45 584.951 129.106 585.777 129.594C586.617 130.081 587.646 130.325 588.864 130.325C589.893 130.325 590.767 130.176 591.484 129.878C592.216 129.567 592.811 129.201 593.272 128.781C593.732 128.348 594.064 127.962 594.267 127.624L595.993 129.756C595.546 130.406 594.998 130.975 594.348 131.462C593.712 131.95 592.933 132.322 592.012 132.579C591.092 132.85 589.968 132.986 588.641 132.986C586.854 132.986 585.303 132.607 583.99 131.848C582.69 131.076 581.688 130.014 580.984 128.66C580.28 127.292 579.928 125.728 579.928 123.968C579.928 122.343 580.259 120.881 580.923 119.581C581.586 118.267 582.548 117.232 583.807 116.473C585.08 115.715 586.61 115.336 588.397 115.336C590.036 115.336 591.457 115.681 592.662 116.372C593.881 117.049 594.822 118.01 595.485 119.256C596.162 120.502 596.501 121.991 596.501 123.724C596.501 123.832 596.494 124.029 596.481 124.313C596.467 124.584 596.454 124.773 596.44 124.882H583.259ZM593.129 122.221C593.116 121.666 592.953 121.057 592.642 120.393C592.344 119.73 591.857 119.161 591.18 118.687C590.503 118.213 589.589 117.976 588.438 117.976C587.246 117.976 586.285 118.206 585.554 118.667C584.836 119.127 584.308 119.689 583.969 120.353C583.631 121.003 583.435 121.625 583.38 122.221H593.129Z" fill="white"/>
<path d="M570.957 115.336C571.823 115.336 572.629 115.424 573.374 115.6C574.132 115.776 574.782 115.986 575.323 116.23C575.879 116.473 576.271 116.69 576.501 116.88L575.1 119.114C574.829 118.87 574.342 118.599 573.638 118.301C572.934 117.99 572.148 117.834 571.282 117.834C570.334 117.834 569.528 118.024 568.865 118.403C568.201 118.768 567.869 119.303 567.869 120.007C567.869 120.711 568.208 121.273 568.885 121.693C569.576 122.099 570.496 122.438 571.647 122.709C572.568 122.925 573.428 123.216 574.227 123.582C575.039 123.948 575.696 124.455 576.197 125.105C576.698 125.742 576.948 126.595 576.948 127.664C576.948 128.639 576.745 129.472 576.339 130.163C575.933 130.84 575.384 131.388 574.694 131.808C574.003 132.214 573.231 132.512 572.378 132.701C571.525 132.891 570.659 132.986 569.779 132.986C568.75 132.986 567.822 132.877 566.996 132.661C566.17 132.458 565.473 132.214 564.904 131.93C564.349 131.632 563.943 131.374 563.686 131.158L565.087 128.639C565.439 128.978 566.014 129.337 566.813 129.716C567.626 130.095 568.546 130.284 569.576 130.284C570.713 130.284 571.634 130.047 572.338 129.574C573.042 129.086 573.394 128.456 573.394 127.685C573.394 127.102 573.225 126.635 572.886 126.283C572.548 125.931 572.094 125.647 571.525 125.43C570.957 125.214 570.334 125.024 569.657 124.862C569.007 124.713 568.37 124.516 567.748 124.273C567.138 124.029 566.576 123.717 566.062 123.338C565.561 122.946 565.161 122.472 564.864 121.917C564.566 121.348 564.417 120.684 564.417 119.926C564.417 118.965 564.721 118.146 565.331 117.469C565.94 116.778 566.739 116.25 567.727 115.884C568.716 115.519 569.792 115.336 570.957 115.336Z" fill="white"/>
<path d="M555.765 132.498V115.823H559.299V132.498H555.765ZM557.572 110.116C556.936 110.116 556.387 109.893 555.927 109.446C555.48 108.985 555.257 108.437 555.257 107.801C555.257 107.164 555.48 106.616 555.927 106.155C556.387 105.695 556.936 105.465 557.572 105.465C557.992 105.465 558.378 105.573 558.73 105.79C559.095 106.006 559.387 106.291 559.603 106.643C559.82 106.981 559.928 107.367 559.928 107.801C559.928 108.437 559.698 108.985 559.238 109.446C558.777 109.893 558.222 110.116 557.572 110.116Z" fill="white"/>
<path d="M532.233 105.688H538.549C541.406 105.688 543.756 106.264 545.597 107.415C547.452 108.552 548.826 110.13 549.72 112.147C550.614 114.165 551.061 116.473 551.061 119.073C551.061 121.686 550.614 124.002 549.72 126.019C548.826 128.037 547.459 129.621 545.617 130.772C543.776 131.923 541.42 132.498 538.549 132.498H532.233V105.688ZM535.686 108.857V129.33H538.265C540.377 129.33 542.104 128.89 543.444 128.01C544.785 127.129 545.773 125.924 546.41 124.394C547.059 122.851 547.391 121.091 547.405 119.114C547.405 117.123 547.087 115.363 546.45 113.833C545.814 112.289 544.819 111.077 543.465 110.197C542.111 109.304 540.377 108.857 538.265 108.857H535.686Z" fill="white"/>
<path d="M631.283 15.2773V22.2918H590.651V46.8163H628.892V53.8307H590.651V80.7454H633.101V87.7598H582.961V15.2773H631.283Z" fill="white"/>
<path d="M511.05 50.2458C511.05 55.788 511.76 60.6029 513.181 64.6903C514.635 68.7431 516.523 72.1204 518.844 74.8223C521.2 77.4895 523.849 79.4812 526.794 80.7975C529.773 82.0792 532.786 82.72 535.835 82.72C538.987 82.72 541.827 82.1484 544.356 81.0053C546.919 79.8622 549.136 78.3555 551.007 76.4849C552.912 74.5798 554.47 72.4322 555.683 70.042C556.93 67.6173 557.813 65.1406 558.333 62.6119H566.178C565.451 66.353 564.256 69.8689 562.593 73.1596C560.931 76.4503 558.818 79.308 556.254 81.7328C553.726 84.1575 550.747 86.08 547.317 87.5002C543.923 88.8857 540.095 89.5785 535.835 89.5785C530.881 89.5785 526.395 88.6952 522.377 86.9286C518.394 85.1274 514.982 82.5468 512.141 79.1868C509.336 75.7922 507.171 71.6701 505.647 66.8206C504.122 61.9365 503.36 56.4115 503.36 50.2458C503.36 47.059 503.672 43.9414 504.296 40.8932C504.954 37.8103 505.906 34.9179 507.153 32.2161C508.435 29.4796 509.994 26.9683 511.83 24.6821C513.7 22.3612 515.83 20.3868 518.221 18.7588C520.611 17.0961 523.261 15.7971 526.17 14.8619C529.115 13.9266 532.284 13.459 535.679 13.459C539.974 13.459 543.819 14.0305 547.214 15.1736C550.608 16.3167 553.552 17.9101 556.047 19.9538C558.575 21.9629 560.688 24.3703 562.385 27.1761C564.083 29.9472 565.399 32.9955 566.334 36.3208H558.177C556.272 30.8825 553.483 26.847 549.811 24.2144C546.174 21.5472 541.463 20.2136 535.679 20.2136C532.076 20.2136 528.768 21.0103 525.755 22.6037C522.741 24.1971 520.143 26.3621 517.961 29.0986C515.778 31.8351 514.081 35.0219 512.869 38.659C511.656 42.2961 511.05 46.1583 511.05 50.2458Z" fill="white"/>
<path d="M442.153 15.2773L479.043 77.9396V15.2773H486.733V87.7598H476.445L439.555 25.1495V87.7598H431.865V15.2773H442.153Z" fill="white"/>
<path d="M388.791 15.2773L415.134 87.7598H407.133L398.767 64.6901H367.956L359.59 87.7598H351.641L378.192 15.2773H388.791ZM383.387 22.4476L370.086 58.8707H396.637L383.387 22.4476Z" fill="white"/>
<path d="M290.849 15.2773V52.3239L327.792 15.2773H337.924L309.294 43.7507L339.69 87.7598H329.922L303.943 49.3103L290.849 62.1961V87.7598H283.159V15.2773H290.849Z" fill="white"/>
<path d="M230.577 15.2773V80.7454H267V87.7598H222.887V15.2773H230.577Z" fill="white"/>
<path d="M179.813 15.2773L206.156 87.7598H198.155L189.789 64.6901H158.978L150.612 87.7598H142.663L169.214 15.2773H179.813ZM174.409 22.4476L161.108 58.8707H187.659L174.409 22.4476Z" fill="white"/>
</svg>
