<svg width="25" height="25" viewBox="0 0 25 25" fill="none" xmlns="http://www.w3.org/2000/svg">
<path d="M19.6289 4.13477H5.2289C4.3449 4.13477 3.62891 4.85077 3.62891 5.73477V20.1348C3.62891 21.0188 4.3449 21.7348 5.2289 21.7348H19.6289C20.5129 21.7348 21.2289 21.0188 21.2289 20.1348V5.73477C21.2289 4.85077 20.5129 4.13477 19.6289 4.13477ZM9.19212 18.5347H6.8321V10.9412H9.19212V18.5347ZM7.98807 9.8556C7.22731 9.8556 6.61211 9.2388 6.61211 8.47958C6.61211 7.72037 7.2281 7.10437 7.98807 7.10437C8.74647 7.10437 9.36327 7.72117 9.36327 8.47958C9.36327 9.2388 8.74647 9.8556 7.98807 9.8556ZM18.0321 18.5347H15.6737V14.842C15.6737 13.9612 15.6577 12.8284 14.4473 12.8284C13.2193 12.8284 13.0305 13.7876 13.0305 14.778V18.5347H10.6721V10.9412H12.9361V11.9788H12.9681C13.2833 11.382 14.0529 10.7524 15.2009 10.7524C17.5905 10.7524 18.0321 12.3252 18.0321 14.37V18.5347Z" fill="white"/>
</svg>
