<svg width="25" height="25" viewBox="0 0 25 25" fill="none" xmlns="http://www.w3.org/2000/svg">
<path d="M3.20312 8.9375C3.20312 6.05637 5.5467 3.71094 8.42656 3.71094H16.4266C19.3077 3.71094 21.6531 6.05452 21.6531 8.93435V16.9344C21.6531 19.8155 19.3095 22.1609 16.4297 22.1609H8.42971C5.54856 22.1609 3.20312 19.8174 3.20312 16.9375V8.9375ZM19.2032 7.33594C19.2032 6.68723 18.6768 6.16094 18.0281 6.16094C17.3794 6.16094 16.8531 6.68723 16.8531 7.33594C16.8531 7.98465 17.3794 8.51097 18.0281 8.51097C18.6768 8.51097 19.2032 7.98465 19.2032 7.33594ZM17.6031 12.936C17.6031 10.0816 15.2825 7.76094 12.4281 7.76094C9.57384 7.76094 7.25313 10.0816 7.25313 12.936C7.25313 15.7902 9.57384 18.111 12.4281 18.111C15.2825 18.111 17.6031 15.7902 17.6031 12.936ZM10.4306 10.9383C10.9604 10.4085 11.6789 10.1109 12.4281 10.1109C13.1774 10.1109 13.8959 10.4085 14.4257 10.9383C14.9555 11.4682 15.2531 12.1867 15.2531 12.936C15.2531 13.6852 14.9555 14.4037 14.4257 14.9335C13.8959 15.4633 13.1774 15.7609 12.4281 15.7609C11.6789 15.7609 10.9604 15.4633 10.4306 14.9335C9.90076 14.4037 9.60316 13.6852 9.60316 12.936C9.60316 12.1867 9.90076 11.4682 10.4306 10.9383Z" fill="white" stroke="white"/>
</svg>
