<svg width="598" height="133" viewBox="0 0 598 133" fill="none" xmlns="http://www.w3.org/2000/svg">
<path d="M208.59 88.7172H171.872L164.868 105.664H146.113L181.362 26.5792H199.439L234.801 105.664H215.595L208.59 88.7172ZM202.828 74.8209L190.288 44.5427L177.747 74.8209H202.828Z" fill="#141B4D"/>
<path d="M301.894 44.8817V105.664H285.174V98.4333C282.839 101.069 280.052 103.103 276.813 104.534C273.574 105.89 270.072 106.568 266.306 106.568C258.322 106.568 251.996 104.271 247.326 99.6761C242.656 95.0816 240.321 88.2653 240.321 79.227V44.8817H257.946V76.6285C257.946 86.42 262.051 91.3157 270.26 91.3157C274.478 91.3157 277.868 89.96 280.428 87.2485C282.989 84.4617 284.27 80.3568 284.27 74.9339V44.8817H301.894Z" fill="#141B4D"/>
<path d="M318.222 21.8341H335.847V105.664H318.222V21.8341Z" fill="#141B4D"/>
<path d="M376.72 43.9778C386.135 43.9778 393.366 46.2374 398.412 50.7565C403.459 55.2003 405.982 61.9414 405.982 70.9796V105.664H389.487V98.0944C386.173 103.743 379.997 106.568 370.958 106.568C366.289 106.568 362.221 105.777 358.757 104.195C355.367 102.614 352.769 100.429 350.961 97.6425C349.154 94.8557 348.25 91.6923 348.25 88.1523C348.25 82.5034 350.359 78.0596 354.577 74.8209C358.87 71.5822 365.46 69.9628 374.348 69.9628H388.357C388.357 66.1216 387.19 63.1841 384.855 61.1505C382.52 59.0416 379.018 57.9871 374.348 57.9871C371.109 57.9871 367.908 58.5144 364.745 59.5688C361.657 60.548 359.02 61.9037 356.836 63.636L350.509 51.3214C353.823 48.9865 357.778 47.1789 362.372 45.8985C367.042 44.618 371.825 43.9778 376.72 43.9778ZM375.365 94.705C378.377 94.705 381.051 94.0272 383.386 92.6714C385.721 91.2404 387.378 89.1691 388.357 86.4576V80.2438H376.268C369.038 80.2438 365.423 82.6164 365.423 87.3615C365.423 89.621 366.289 91.4287 368.021 92.7844C369.829 94.0648 372.277 94.705 375.365 94.705Z" fill="#141B4D"/>
<path d="M461.136 102.726C459.404 104.007 457.257 104.986 454.697 105.664C452.211 106.266 449.575 106.568 446.788 106.568C439.557 106.568 433.946 104.722 429.954 101.032C426.038 97.3412 424.079 91.9182 424.079 84.763V59.7948H414.702V46.2374H424.079V31.4373H441.704V46.2374H456.843V59.7948H441.704V84.537C441.704 87.0978 442.344 89.0938 443.625 90.5249C444.98 91.8806 446.863 92.5585 449.274 92.5585C452.06 92.5585 454.433 91.8053 456.391 90.2989L461.136 102.726Z" fill="#141B4D"/>
<path d="M528.694 75.4987C528.694 75.7247 528.581 77.3064 528.355 80.2438H482.373C483.201 84.0098 485.159 86.9849 488.247 89.1691C491.336 91.3534 495.177 92.4455 499.771 92.4455C502.935 92.4455 505.721 91.9936 508.132 91.0897C510.617 90.1106 512.914 88.6042 515.023 86.5706L524.401 96.7387C518.676 103.291 510.316 106.568 499.319 106.568C492.465 106.568 486.402 105.25 481.13 102.614C475.858 99.902 471.79 96.1738 468.928 91.4287C466.066 86.6836 464.635 81.2983 464.635 75.2728C464.635 69.3226 466.028 63.975 468.815 59.2299C471.677 54.4095 475.556 50.6812 480.452 48.045C485.423 45.3336 490.959 43.9778 497.06 43.9778C503.01 43.9778 508.395 45.2583 513.216 47.8191C518.036 50.3799 521.802 54.0706 524.513 58.891C527.3 63.636 528.694 69.172 528.694 75.4987ZM497.173 57.3093C493.181 57.3093 489.829 58.439 487.118 60.6986C484.406 62.9582 482.749 66.0462 482.147 69.9628H512.086C511.483 66.1216 509.826 63.0712 507.115 60.8116C504.403 58.4767 501.089 57.3093 497.173 57.3093Z" fill="#141B4D"/>
<path d="M569.802 106.568C563.324 106.568 557.487 105.25 552.29 102.614C547.169 99.902 543.139 96.1738 540.202 91.4287C537.339 86.6836 535.908 81.2983 535.908 75.2728C535.908 69.2473 537.339 63.862 540.202 59.1169C543.139 54.3718 547.169 50.6812 552.29 48.045C557.487 45.3336 563.324 43.9778 569.802 43.9778C576.204 43.9778 581.778 45.3336 586.523 48.045C591.343 50.6812 594.845 54.4848 597.03 59.4558L583.359 66.7994C580.196 61.2258 575.639 58.439 569.689 58.439C565.094 58.439 561.291 59.9454 558.278 62.9582C555.265 65.9709 553.759 70.0758 553.759 75.2728C553.759 80.4698 555.265 84.5747 558.278 87.5874C561.291 90.6002 565.094 92.1065 569.689 92.1065C575.714 92.1065 580.271 89.3197 583.359 83.7462L597.03 91.2027C594.845 96.0231 591.343 99.7891 586.523 102.501C581.778 105.212 576.204 106.568 569.802 106.568Z" fill="#141B4D"/>
<rect width="132.195" height="132.195" fill="#0061FE"/>
<path fill-rule="evenodd" clip-rule="evenodd" d="M85.3407 105.615H106.473L89.8287 73.1506L74.1875 73.1263L66.0996 73.1264L82.6957 105.615L85.3407 105.615Z" fill="white"/>
<path d="M88.7035 42.036L100.768 65.6548H76.6387L88.7035 42.036Z" fill="white"/>
<path fill-rule="evenodd" clip-rule="evenodd" d="M66.1004 26.5782L25.7266 105.616H49.5037L77.7668 49.4221L66.1004 26.5782Z" fill="white"/>
</svg>
