<svg width="653" height="100" viewBox="0 0 653 100" fill="none" xmlns="http://www.w3.org/2000/svg">
<circle cx="13.5859" cy="85.3597" r="13.5859" fill="#035075"/>
<rect x="0.0166016" width="82.7396" height="27.6047" rx="12.5" fill="#027DA2"/>
<rect x="0.0166016" y="35.5773" width="54.3185" height="27.6047" rx="12.5" fill="#00B3B7"/>
<path d="M651.683 72.1792H601.2C603.082 80.0636 609.908 85.0061 619.204 85.0061C625.676 85.0061 629.56 83.2409 633.561 78.5338H650.624C649.565 81.8288 647.918 84.5354 645.446 87.595C638.621 95.5971 630.266 99.3627 619.557 99.3627C599.67 99.3627 584.254 84.5354 584.254 65.4716C584.254 46.2901 599.434 31.1097 618.616 31.1097C638.033 31.1097 652.272 45.9371 652.272 66.1777C652.272 68.5312 652.154 69.9433 651.683 72.1792ZM600.729 58.4109H636.856C634.855 50.0558 628.501 45.4664 618.851 45.4664C609.555 45.4664 603.2 49.9382 600.729 58.4109Z" fill="#020B42"/>
<path d="M551.129 97.8329V32.6396H565.486V38.9941C569.604 32.8749 572.899 31.1097 579.607 31.1097H580.784V46.1725C571.369 46.4078 566.78 51.468 566.78 61.5882V97.8329H551.129Z" fill="#020B42"/>
<path d="M538.414 32.6396V97.8329H524.057V89.3601C517.82 96.5385 511.583 99.3627 502.404 99.3627C483.341 99.3627 469.572 85.1238 469.572 65.4716C469.572 45.5841 483.458 31.1097 502.757 31.1097C512.172 31.1097 518.644 34.1694 524.057 41.3477V32.6396H538.414ZM504.17 45.4664C493.225 45.4664 485.341 54.0569 485.341 65.8246C485.341 77.2394 493.225 85.0061 504.64 85.0061C515.937 85.0061 523.586 77.1217 523.586 65.4716C523.586 53.7038 515.584 45.4664 504.17 45.4664Z" fill="#020B42"/>
<path d="M400.984 97.8327L377.684 32.6393H394.512L406.162 72.4143L417.106 32.6393H429.579L440.288 72.4143L452.174 32.6393H468.884L445.348 97.8327H435.581L423.225 55.5864L410.633 97.8327H400.984Z" fill="#020B42"/>
<path d="M370.963 10.8689V97.8326H356.607V89.3598C350.252 96.4205 343.898 99.3624 335.072 99.3624C316.596 99.3624 302.357 84.5351 302.357 65.1183C302.357 45.5838 316.714 30.2857 334.954 30.2857C343.192 30.2857 350.723 33.3453 355.312 38.4054V10.8689H370.963ZM336.955 44.6424C326.364 44.6424 318.126 53.3505 318.126 64.6475C318.126 76.0623 326.717 85.0058 337.543 85.0058C348.134 85.0058 356.489 76.18 356.489 65.0006C356.489 53.2328 348.252 44.6424 336.955 44.6424Z" fill="#020B42"/>
<path d="M261.464 31.1097C280.41 31.1097 295.826 46.5255 295.826 65.3539C295.826 84.0647 280.292 99.3627 261.229 99.3627C242.047 99.3627 226.514 84.0647 226.514 65.3539C226.514 46.2902 241.929 31.1097 261.464 31.1097ZM260.876 45.4664C250.755 45.4664 242.282 54.4099 242.282 65.2362C242.282 76.1803 250.755 85.0061 261.111 85.0061C271.584 85.0061 280.057 76.1803 280.057 65.3539C280.057 54.1745 271.584 45.4664 260.876 45.4664Z" fill="#020B42"/>
<path d="M185.62 31.1097C204.566 31.1097 219.982 46.5255 219.982 65.3539C219.982 84.0647 204.449 99.3627 185.385 99.3627C166.203 99.3627 150.67 84.0647 150.67 65.3539C150.67 46.2902 166.086 31.1097 185.62 31.1097ZM185.032 45.4664C174.912 45.4664 166.439 54.4099 166.439 65.2362C166.439 76.1803 174.912 85.0061 185.267 85.0061C195.74 85.0061 204.213 76.1803 204.213 65.3539C204.213 54.1745 195.74 45.4664 185.032 45.4664Z" fill="#020B42"/>
<path d="M98.04 97.8326V10.8689H142.287V26.2847H114.162V46.7606H140.992V62.1763H114.162V97.8326H98.04Z" fill="#020B42"/>
</svg>
